<svg width="34" height="34" viewBox="0 0 34 34" fill="none" xmlns="http://www.w3.org/2000/svg">
<path d="M4.16625 33.33C6.45769 33.33 8.3325 31.4552 8.3325 29.1638L8.3325 14.5819C8.3325 12.2904 6.45769 10.4156 4.16625 10.4156C1.87481 10.4156 0 12.2904 0 14.5819L0 29.1638C0 31.4552 1.87481 33.33 4.16625 33.33ZM24.9975 22.9144V29.1638C24.9975 31.4552 26.8723 33.33 29.1638 33.33C31.4552 33.33 33.33 31.4552 33.33 29.1638V22.9144C33.33 20.6229 31.4552 18.7481 29.1638 18.7481C26.8723 18.7481 24.9975 20.6229 24.9975 22.9144ZM16.665 33.33C18.9564 33.33 20.8313 31.4552 20.8313 29.1638V4.16625C20.8313 1.87481 18.9564 0 16.665 0C14.3736 0 12.4988 1.87481 12.4988 4.16625L12.4988 29.1638C12.4988 31.4552 14.3736 33.33 16.665 33.33Z" fill="white"/>
</svg>
