<svg width="35" height="34" viewBox="0 0 35 34" fill="none" xmlns="http://www.w3.org/2000/svg">
<path d="M17.4879 27.3089L27.2335 33.1902C27.9498 33.6238 28.8358 32.9829 28.6473 32.1723L26.0648 21.0883L34.6605 13.6424C35.2826 13.0957 34.9621 12.059 34.1139 11.9836L22.7848 11.0222L18.355 0.579086C18.2839 0.407658 18.1635 0.261153 18.0092 0.158082C17.8549 0.0550108 17.6734 0 17.4879 0C17.3023 0 17.1208 0.0550108 16.9665 0.158082C16.8122 0.261153 16.6918 0.407658 16.6207 0.579086L12.1909 11.0222L0.861833 11.9836C0.676275 11.9995 0.4996 12.0701 0.35411 12.1863C0.20862 12.3026 0.100837 12.4594 0.0443683 12.6368C-0.0121009 12.8143 -0.014725 13.0045 0.0368269 13.1835C0.0883788 13.3625 0.191796 13.5222 0.334023 13.6424L8.92979 21.0883L6.34729 32.1723C6.15879 32.9829 7.04475 33.6238 7.76107 33.1902L17.4879 27.3089Z" fill="white"/>
</svg>
