<svg width="30" height="34" viewBox="0 0 30 34" fill="none" xmlns="http://www.w3.org/2000/svg">
<path d="M8.33325 2.5C8.33325 1.83696 8.59664 1.20108 9.06549 0.732234C9.53433 0.263392 10.1702 0 10.8333 0L19.1666 0C19.8296 0 20.4655 0.263392 20.9344 0.732234C21.4032 1.20108 21.6666 1.83696 21.6666 2.5V4.16667C21.6666 4.82971 21.4032 5.4656 20.9344 5.93444C20.4655 6.40328 19.8296 6.66667 19.1666 6.66667L10.8333 6.66667C10.1702 6.66667 9.53433 6.40328 9.06549 5.93444C8.59664 5.4656 8.33325 4.82971 8.33325 4.16667V2.5Z" fill="white"/>
<path fill-rule="evenodd" clip-rule="evenodd" d="M5.83334 3.39502C3.73667 3.51169 2.41334 3.84502 1.465 4.79502C-9.93412e-08 6.26002 0 8.61669 0 13.33L0 23.33C0 28.045 -9.93412e-08 30.4017 1.465 31.8667C2.92834 33.3301 5.28667 33.33 10 33.33H20C24.7134 33.33 27.0717 33.3301 28.535 31.8667C30 30.4 30 28.045 30 23.33V13.33C30 8.61669 30 6.26002 28.535 4.79502C27.5867 3.84502 26.2634 3.51169 24.1667 3.39502V4.16669C24.1667 5.49277 23.6399 6.76454 22.7022 7.70222C21.7645 8.63991 20.4928 9.16669 19.1667 9.16669H10.8333C9.50726 9.16669 8.23549 8.63991 7.29781 7.70222C6.36012 6.76454 5.83334 5.49277 5.83334 4.16669V3.39502ZM5.41667 14.1667C5.41667 13.8352 5.54837 13.5172 5.78279 13.2828C6.01721 13.0484 6.33515 12.9167 6.66667 12.9167L23.3334 12.9167C23.6649 12.9167 23.9828 13.0484 24.2172 13.2828C24.4517 13.5172 24.5834 13.8352 24.5834 14.1667C24.5834 14.4982 24.4517 14.8162 24.2172 15.0506C23.9828 15.285 23.6649 15.4167 23.3334 15.4167L6.66667 15.4167C6.33515 15.4167 6.01721 15.285 5.78279 15.0506C5.54837 14.8162 5.41667 14.4982 5.41667 14.1667ZM7.08334 20C7.08334 19.6685 7.21504 19.3506 7.44946 19.1162C7.68388 18.8817 8.00182 18.75 8.33334 18.75H21.6667C21.9982 18.75 22.3162 18.8817 22.5506 19.1162C22.785 19.3506 22.9167 19.6685 22.9167 20C22.9167 20.3316 22.785 20.6495 22.5506 20.8839C22.3162 21.1183 21.9982 21.25 21.6667 21.25H8.33334C8.00182 21.25 7.68388 21.1183 7.44946 20.8839C7.21504 20.6495 7.08334 20.3316 7.08334 20ZM8.75001 25.8334C8.75001 25.5019 8.88171 25.1839 9.11613 24.9495C9.35055 24.7151 9.66849 24.5834 10 24.5834H20C20.3315 24.5834 20.6495 24.7151 20.8839 24.9495C21.1183 25.1839 21.25 25.5019 21.25 25.8334C21.25 26.1649 21.1183 26.4828 20.8839 26.7173C20.6495 26.9517 20.3315 27.0834 20 27.0834H10C9.66849 27.0834 9.35055 26.9517 9.11613 26.7173C8.88171 26.4828 8.75001 26.1649 8.75001 25.8334Z" fill="white"/>
</svg>
