<svg width="20" height="20" viewBox="0 0 20 20" fill="none" xmlns="http://www.w3.org/2000/svg">
<path d="M2.5 7C3.46079 7 4.25 7.78921 4.25 8.75V17.5C4.25 18.4608 3.46079 19.25 2.5 19.25C1.53921 19.25 0.75 18.4608 0.75 17.5V8.75C0.75 7.78921 1.53921 7 2.5 7ZM10 0.75C10.9608 0.75 11.75 1.53921 11.75 2.5V17.5C11.75 18.4608 10.9608 19.25 10 19.25C9.03921 19.25 8.25 18.4608 8.25 17.5V2.5C8.25 1.53921 9.03921 0.75 10 0.75ZM17.5 12C18.4608 12 19.25 12.7892 19.25 13.75V17.5C19.25 18.4608 18.4608 19.25 17.5 19.25C16.5392 19.25 15.75 18.4608 15.75 17.5V13.75C15.75 12.7892 16.5392 12 17.5 12Z" stroke="#2F2F2F" stroke-width="1.5"/>
</svg>
