<svg width="20" height="20" viewBox="0 0 20 20" fill="none" xmlns="http://www.w3.org/2000/svg">
<path d="M7.77734 14.083C7.90289 14.083 7.97403 14.1176 8.04004 14.1836C8.1058 14.2494 8.13891 14.319 8.13867 14.4424V18.8887C8.13867 19.0142 8.10409 19.0844 8.03809 19.1504C7.97218 19.2163 7.90295 19.2503 7.7793 19.25H1.11133C0.985849 19.25 0.916464 19.2155 0.851562 19.1504C0.801708 19.1004 0.769767 19.0479 0.756836 18.9717L0.75 18.8867V14.4443C0.750019 14.3189 0.784483 14.2495 0.849609 14.1846C0.899618 14.1348 0.952083 14.1028 1.02832 14.0898L1.11328 14.083H7.77734ZM18.8887 9.63867C19.0141 9.63867 19.0844 9.67336 19.1504 9.73926C19.2163 9.80515 19.2503 9.87448 19.25 9.99805V18.8887C19.25 19.0142 19.2154 19.0844 19.1494 19.1504C19.0835 19.2163 19.0143 19.2503 18.8906 19.25H12.2227C12.0971 19.25 12.0268 19.2155 11.9619 19.1504C11.9123 19.1005 11.8811 19.0478 11.8682 18.9717L11.8613 18.8867V10C11.8613 9.87449 11.8958 9.80515 11.9609 9.74023C12.0275 9.67399 12.0983 9.63903 12.2236 9.63867H18.8887ZM7.77734 0.75C7.90289 0.75 7.97403 0.784578 8.04004 0.850586C8.10575 0.916409 8.13896 0.985887 8.13867 1.10938V10C8.13867 10.1255 8.1041 10.1957 8.03809 10.2617C7.97221 10.3275 7.90289 10.3616 7.7793 10.3613H1.11133C0.985918 10.3613 0.916433 10.3268 0.851562 10.2617C0.801753 10.2117 0.76979 10.1592 0.756836 10.083L0.75 9.99805V1.11133C0.75 0.985848 0.784501 0.916464 0.849609 0.851562C0.899639 0.801707 0.952057 0.769767 1.02832 0.756836L1.11328 0.75H7.77734ZM18.8887 0.75C19.0142 0.75 19.0844 0.784619 19.1504 0.850586C19.2163 0.916505 19.2503 0.985696 19.25 1.10938V5.55566C19.25 5.68114 19.2154 5.75139 19.1494 5.81738C19.0835 5.88324 19.0143 5.91728 18.8906 5.91699H12.2227C12.0971 5.91699 12.0268 5.88252 11.9619 5.81738C11.9122 5.76748 11.8811 5.71466 11.8682 5.63867L11.8613 5.55371V1.11133C11.8613 0.985814 11.8958 0.916481 11.9609 0.851562C12.011 0.801692 12.0633 0.769739 12.1396 0.756836L12.2236 0.75H18.8887Z" stroke="#2F2F2F" stroke-width="1.5"/>
</svg>
