<svg width="22" height="22" viewBox="0 0 22 22" fill="none" xmlns="http://www.w3.org/2000/svg">
<path fill-rule="evenodd" clip-rule="evenodd" d="M11.2132 20.9902L11.2022 20.992L11.1371 21.0241L11.1188 21.0278L11.1059 21.0241L11.0408 20.9911C11.0311 20.9886 11.0237 20.9905 11.0188 20.9966L11.0152 21.0058L10.9996 21.3982L11.0042 21.4165L11.0133 21.4284L11.1087 21.4963L11.1224 21.4999L11.1334 21.4963L11.2288 21.4284L11.2398 21.4137L11.2435 21.3982L11.2279 21.0067C11.2254 20.9969 11.2205 20.9914 11.2132 20.9902ZM11.4553 20.8866L11.4424 20.8884L11.2737 20.9737L11.2645 20.9828L11.2618 20.9929L11.2783 21.3872L11.2829 21.3982L11.2902 21.4055L11.4745 21.4898C11.4861 21.4929 11.495 21.4905 11.5011 21.4825L11.5048 21.4697L11.4736 20.9067C11.4705 20.8951 11.4644 20.8884 11.4553 20.8866ZM10.7997 20.8884C10.7957 20.8859 10.7908 20.8852 10.7862 20.8862C10.7816 20.8872 10.7776 20.89 10.775 20.8939L10.7695 20.9067L10.7383 21.4697C10.7389 21.4807 10.7441 21.488 10.7539 21.4917L10.7676 21.4898L10.9519 21.4046L10.9611 21.3972L10.9638 21.3872L10.9803 20.9929L10.9776 20.9819L10.9684 20.9727L10.7997 20.8884Z" fill="#00B894"/>
<path d="M16.6279 10.835C17.4347 10.835 18.2088 11.1561 18.7793 11.7266C19.3495 12.2969 19.6698 13.0704 19.6699 13.877V13.9629C19.8735 14.1037 20.0527 14.2789 20.1973 14.4834C20.4509 14.8423 20.587 15.2714 20.5869 15.7109V18.4619C20.5868 19.0255 20.3633 19.5664 19.9648 19.9648C19.5664 20.3633 19.0255 20.5868 18.4619 20.5869H14.7939C14.2304 20.5868 13.6895 20.3633 13.291 19.9648C12.8925 19.5664 12.669 19.0255 12.6689 18.4619V15.7109C12.6688 15.2714 12.8049 14.8423 13.0586 14.4834C13.2031 14.2789 13.3824 14.1037 13.5859 13.9629V13.877C13.586 13.0704 13.9063 12.2969 14.4766 11.7266C15.0471 11.1561 15.8211 10.835 16.6279 10.835ZM11.418 16.1699C11.418 16.8996 11.5821 17.5879 11.873 18.2021C11.9926 18.4544 12.0473 18.733 12.0312 19.0117C12.0151 19.2903 11.9288 19.5601 11.7812 19.7969C11.6336 20.0338 11.4287 20.23 11.1855 20.3672C10.9425 20.5043 10.6687 20.5782 10.3896 20.582H10.3848L9.75684 20.5869H9.75195C7.69365 20.5869 5.68283 20.4588 4.13867 20.0498C3.37279 19.8469 2.58043 19.5396 1.9502 19.0332C1.26762 18.4852 0.750009 17.675 0.75 16.6279C0.75 15.6782 1.1789 14.8431 1.68457 14.2021H1.68555C2.20537 13.5445 2.90502 12.9616 3.69629 12.4775L3.69727 12.4766C4.80432 11.8025 6.17897 11.2701 7.70312 11.0098C7.06479 10.7443 6.47783 10.3548 5.97949 9.85645C4.97913 8.85609 4.41699 7.49871 4.41699 6.08398C4.41705 4.66943 4.9793 3.31279 5.97949 2.3125C6.97985 1.31214 8.33723 0.75 9.75195 0.75C11.1665 0.750098 12.5232 1.31223 13.5234 2.3125C14.5237 3.3128 15.0859 4.66938 15.0859 6.08398C15.0859 7.49871 14.5238 8.85609 13.5234 9.85645C12.9786 10.4013 12.3272 10.8143 11.6191 11.0791C11.6926 11.1167 11.7645 11.1586 11.832 11.207C12.0658 11.3748 12.2522 11.6001 12.373 11.8613C12.4939 12.1227 12.5451 12.4113 12.5215 12.6982C12.5037 12.9133 12.4445 13.1221 12.3477 13.3135L12.2383 13.499C11.7024 14.2857 11.4161 15.2161 11.418 16.168V16.1699Z" stroke="#2F2F2F" stroke-width="1.5"/>
</svg>
