<svg width="18" height="20" viewBox="0 0 18 20" fill="none" xmlns="http://www.w3.org/2000/svg">
<path fill-rule="evenodd" clip-rule="evenodd" d="M4.62738 1.86977C4.68205 1.35629 4.92315 0.881306 5.30433 0.53615C5.68551 0.190994 6.17986 3.74999e-05 6.69231 0H11.3077C11.8201 3.74999e-05 12.3145 0.190994 12.6957 0.53615C13.0769 0.881306 13.318 1.35629 13.3726 1.86977C14.0778 1.88465 14.6862 1.92093 15.2068 2.01767C15.9065 2.14791 16.5018 2.39349 16.9865 2.88279C17.5422 3.44186 17.7803 4.14791 17.8929 4.98512C18 5.7907 18 6.81674 18 8.08837V13.7721C18 15.0437 18 16.0698 17.8929 16.8763C17.7803 17.7135 17.5422 18.4186 16.9865 18.9786C16.4308 19.5386 15.7311 19.7786 14.9003 19.8921C14.1 20 13.0818 20 11.82 20H6.18C4.91815 20 3.9 20 3.09969 19.8921C2.26892 19.7786 1.56923 19.5386 1.01354 18.9786C0.457846 18.4186 0.219692 17.7135 0.108 16.8763C9.62844e-08 16.0698 0 15.0437 0 13.7721V8.08837C0 6.81674 9.62844e-08 5.7907 0.108 4.98419C0.218769 4.14698 0.458769 3.44186 1.01354 2.88186C1.49815 2.39349 2.09354 2.14698 2.79323 2.01767C3.31385 1.92093 3.92308 1.88465 4.62738 1.86977ZM4.62923 3.26512C3.96646 3.28 3.45508 3.31349 3.04338 3.38977C2.52092 3.48651 2.21723 3.64279 1.99292 3.86884C1.73723 4.12651 1.57108 4.48744 1.47969 5.17116C1.38646 5.87256 1.38462 6.80465 1.38462 8.13953V13.7209C1.38462 15.0558 1.38646 15.987 1.47969 16.6902C1.57108 17.373 1.73815 17.734 1.99292 17.9916C2.24862 18.2493 2.60677 18.4167 3.28523 18.5088C3.98123 18.6028 4.90615 18.6047 6.23077 18.6047H11.7692C13.0938 18.6047 14.0178 18.6028 14.7157 18.5088C15.3932 18.4167 15.7514 18.2484 16.0071 17.9916C16.2628 17.734 16.4289 17.373 16.5203 16.6893C16.6135 15.987 16.6154 15.0558 16.6154 13.7209V8.13953C16.6154 6.80465 16.6135 5.87256 16.5203 5.17023C16.4289 4.48744 16.2618 4.12651 16.0071 3.86884C15.7818 3.64279 15.4791 3.48744 14.9566 3.38977C14.5449 3.31349 14.0335 3.28 13.3708 3.26605C13.3117 3.77568 13.0689 4.24569 12.6886 4.58679C12.3083 4.92789 11.8168 5.11632 11.3077 5.11628H6.69231C6.18302 5.1163 5.69148 4.92774 5.31112 4.58644C4.93075 4.24515 4.68808 3.77491 4.62923 3.26512ZM6.69231 1.39535C6.5087 1.39535 6.33261 1.46885 6.20277 1.59969C6.07294 1.73053 6 1.90799 6 2.09302V3.02326C6 3.40837 6.31015 3.72093 6.69231 3.72093H11.3077C11.4913 3.72093 11.6674 3.64743 11.7972 3.51659C11.9271 3.38575 12 3.20829 12 3.02326V2.09302C12 1.90799 11.9271 1.73053 11.7972 1.59969C11.6674 1.46885 11.4913 1.39535 11.3077 1.39535H6.69231ZM3.69231 8.60465C3.69231 8.41962 3.76525 8.24216 3.89508 8.11132C4.02491 7.98048 4.201 7.90698 4.38462 7.90698H13.6154C13.799 7.90698 13.9751 7.98048 14.1049 8.11132C14.2348 8.24216 14.3077 8.41962 14.3077 8.60465C14.3077 8.78969 14.2348 8.96714 14.1049 9.09798C13.9751 9.22882 13.799 9.30233 13.6154 9.30233H4.38462C4.201 9.30233 4.02491 9.22882 3.89508 9.09798C3.76525 8.96714 3.69231 8.78969 3.69231 8.60465ZM4.61538 11.8605C4.61538 11.6754 4.68832 11.498 4.81816 11.3671C4.94799 11.2363 5.12408 11.1628 5.30769 11.1628H12.6923C12.8759 11.1628 13.052 11.2363 13.1818 11.3671C13.3117 11.498 13.3846 11.6754 13.3846 11.8605C13.3846 12.0455 13.3117 12.223 13.1818 12.3538C13.052 12.4846 12.8759 12.5581 12.6923 12.5581H5.30769C5.12408 12.5581 4.94799 12.4846 4.81816 12.3538C4.68832 12.223 4.61538 12.0455 4.61538 11.8605ZM5.53846 15.1163C5.53846 14.9312 5.6114 14.7538 5.74123 14.6229C5.87107 14.4921 6.04716 14.4186 6.23077 14.4186H11.7692C11.9528 14.4186 12.1289 14.4921 12.2588 14.6229C12.3886 14.7538 12.4615 14.9312 12.4615 15.1163C12.4615 15.3013 12.3886 15.4788 12.2588 15.6096C12.1289 15.7404 11.9528 15.814 11.7692 15.814H6.23077C6.04716 15.814 5.87107 15.7404 5.74123 15.6096C5.6114 15.4788 5.53846 15.3013 5.53846 15.1163Z" fill="#2F2F2F"/>
</svg>
