<svg width="16" height="20" viewBox="0 0 16 20" fill="none" xmlns="http://www.w3.org/2000/svg">
<path d="M8 0.75C9.79493 0.75 11.25 2.20507 11.25 4C11.25 5.79493 9.79493 7.25 8 7.25C6.20507 7.25 4.75 5.79493 4.75 4C4.75 2.20507 6.20507 0.75 8 0.75Z" stroke="#2F2F2F" stroke-width="1.5"/>
<path d="M8 11.75C10.1045 11.75 11.9731 12.2314 13.2891 12.9717C14.6286 13.7252 15.25 14.6488 15.25 15.5C15.25 16.8076 15.2097 17.5441 14.5264 18.1006C14.1559 18.4023 13.5365 18.6965 12.4766 18.9111C11.4196 19.1251 9.97422 19.25 8 19.25C6.02578 19.25 4.58038 19.1251 3.52344 18.9111C2.46355 18.6965 1.84414 18.4023 1.47363 18.1006C0.79034 17.5441 0.75 16.8076 0.75 15.5C0.75 14.6488 1.37139 13.7252 2.71094 12.9717C4.02694 12.2314 5.89546 11.75 8 11.75Z" stroke="#2F2F2F" stroke-width="1.5"/>
</svg>
